HIERARCHY
ROOT hip
{
  OFFSET 0 0 0
  CHANNELS 6 Xposition Yposition Zposition Zrotation Yrotation Xrotation
  JOINT abdomen
  {
    OFFSET 0 20.6881 -0.73152
    CHANNELS 3 Zrotation Xrotation Yrotation
    JOINT chest
    {
      OFFSET 0 11.7043 -0.48768
      CHANNELS 3 Zrotation Xrotation Yrotation
      JOINT neck
      {
        OFFSET 0 22.1894 -2.19456
        CHANNELS 3 Zrotation Xrotation Yrotation
        JOINT head
        {
          OFFSET -0.24384 7.07133 1.2192
          CHANNELS 3 Zrotation Xrotation Yrotation
          JOINT leftEye
          {
            OFFSET 4.14528 8.04674 8.04672
            CHANNELS 3 Zrotation Xrotation Yrotation
            End Site
            {
              OFFSET 1 0 0
            }
          }
          JOINT rightEye
          {
            OFFSET -3.6576 8.04674 8.04672
            CHANNELS 3 Zrotation Xrotation Yrotation
            End Site
            {
              OFFSET 1 0 0
            }
          }
        }
      }
      JOINT rCollar
      {
        OFFSET -2.68224 19.2634 -4.8768
        CHANNELS 3 Zrotation Xrotation Yrotation
        JOINT rShldr
        {
          OFFSET -8.77824 -1.95073 1.46304
          CHANNELS 3 Zrotation Xrotation Yrotation
          JOINT rForeArm
          {
            OFFSET -28.1742 -1.7115 0.48768
            CHANNELS 3 Zrotation Xrotation Yrotation
            JOINT rHand
            {
              OFFSET -22.5879 0.773209 7.07136
              CHANNELS 3 Zrotation Xrotation Yrotation
              JOINT rThumb1
              {
                OFFSET -1.2192 -0.487915 3.41376
                CHANNELS 3 Zrotation Xrotation Yrotation
                JOINT rThumb2
                {
                  OFFSET -3.37035 -0.52449 3.41376
                  CHANNELS 3 Zrotation Xrotation Yrotation
                  End Site
                  {
                    OFFSET -1.78271 -1.18214 1.43049
                  }
                }
              }
              JOINT rIndex1
              {
                OFFSET -7.75947 0.938293 5.60832
                CHANNELS 3 Zrotation Xrotation Yrotation
                JOINT rIndex2
                {
                  OFFSET -2.54057 -0.884171 1.56538
                  CHANNELS 3 Zrotation Xrotation Yrotation
                  End Site
                  {
                    OFFSET -1.62519 -0.234802 1.16502
                  }
                }
              }
              JOINT rMid1
              {
                OFFSET -8.24714 1.18213 3.41376
                CHANNELS 3 Zrotation Xrotation Yrotation
                JOINT rMid2
                {
                  OFFSET -3.10165 -0.590103 1.0647
                  CHANNELS 3 Zrotation Xrotation Yrotation
                  End Site
                  {
                    OFFSET -2.48547 -0.328903 0.83742
                  }
                }
              }
              JOINT rRing1
              {
                OFFSET -8.82822 0.546677 1.51678
                CHANNELS 3 Zrotation Xrotation Yrotation
                JOINT rRing2
                {
                  OFFSET -2.60934 -0.819778 -0.0198488
                  CHANNELS 3 Zrotation Xrotation Yrotation
                  End Site
                  {
                    OFFSET -2.33842 -0.294052 0.168128
                  }
                }
              }
              JOINT rPinky1
              {
                OFFSET -8.27202 -0.0477905 -0.4584
                CHANNELS 3 Zrotation Xrotation Yrotation
                JOINT rPinky2
                {
                  OFFSET -1.82734 -0.647385 -0.700984
                  CHANNELS 3 Zrotation Xrotation Yrotation
                  End Site
                  {
                    OFFSET -1.69225 -0.51767 -0.607171
                  }
                }
              }
            }
          }
        }
      }
      JOINT lCollar
      {
        OFFSET 2.68224 19.2634 -4.8768
        CHANNELS 3 Zrotation Xrotation Yrotation
        JOINT lShldr
        {
          OFFSET 8.77824 -1.95073 1.46304
          CHANNELS 3 Zrotation Xrotation Yrotation
          JOINT lForeArm
          {
            OFFSET 28.1742 -1.7115 0.48768
            CHANNELS 3 Zrotation Xrotation Yrotation
            JOINT lHand
            {
              OFFSET 22.5879 0.773209 7.07136
              CHANNELS 3 Zrotation Xrotation Yrotation
              JOINT lThumb1
              {
                OFFSET 1.2192 -0.487915 3.41376
                CHANNELS 3 Zrotation Xrotation Yrotation
                JOINT lThumb2
                {
                  OFFSET 3.37035 -0.52449 3.41376
                  CHANNELS 3 Zrotation Xrotation Yrotation
                  End Site
                  {
                    OFFSET 1.78271 -1.18214 1.43049
                  }
                }
              }
              JOINT lIndex1
              {
                OFFSET 7.75947 0.938293 5.60832
                CHANNELS 3 Zrotation Xrotation Yrotation
                JOINT lIndex2
                {
                  OFFSET 2.54057 -0.884171 1.56538
                  CHANNELS 3 Zrotation Xrotation Yrotation
                  End Site
                  {
                    OFFSET 1.62519 -0.234802 1.16502
                  }
                }
              }
              JOINT lMid1
              {
                OFFSET 8.24714 1.18213 3.41376
                CHANNELS 3 Zrotation Xrotation Yrotation
                JOINT lMid2
                {
                  OFFSET 3.10165 -0.590103 1.0647
                  CHANNELS 3 Zrotation Xrotation Yrotation
                  End Site
                  {
                    OFFSET 2.48547 -0.328903 0.83742
                  }
                }
              }
              JOINT lRing1
              {
                OFFSET 8.82822 0.546677 1.51678
                CHANNELS 3 Zrotation Xrotation Yrotation
                JOINT lRing2
                {
                  OFFSET 2.60934 -0.819778 -0.0198488
                  CHANNELS 3 Zrotation Xrotation Yrotation
                  End Site
                  {
                    OFFSET 2.33842 -0.294052 0.168128
                  }
                }
              }
              JOINT lPinky1
              {
                OFFSET 8.27202 -0.0477905 -0.4584
                CHANNELS 3 Zrotation Xrotation Yrotation
                JOINT lPinky2
                {
                  OFFSET 1.82734 -0.647385 -0.700984
                  CHANNELS 3 Zrotation Xrotation Yrotation
                  End Site
                  {
                    OFFSET 1.69225 -0.51767 -0.607171
                  }
                }
              }
            }
          }
        }
      }
    }
  }
  JOINT rButtock
  {
    OFFSET -8.77824 4.35084 1.2192
    CHANNELS 3 Zrotation Xrotation Yrotation
    JOINT rThigh
    {
      OFFSET 0 -1.70687 -2.19456
      CHANNELS 3 Zrotation Xrotation Yrotation
      JOINT rShin
      {
        OFFSET 0 -36.8199 0.73152
        CHANNELS 3 Zrotation Xrotation Yrotation
        JOINT rFoot
        {
          OFFSET 0.73152 -45.1104 -5.12064
          CHANNELS 3 Zrotation Xrotation Yrotation
          End Site
          {
            OFFSET -1.1221 -3.69964 12.103
          }
        }
      }
    }
  }
  JOINT lButtock
  {
    OFFSET 8.77824 4.35084 1.2192
    CHANNELS 3 Zrotation Xrotation Yrotation
    JOINT lThigh
    {
      OFFSET 0 -1.70687 -2.19456
      CHANNELS 3 Zrotation Xrotation Yrotation
      JOINT lShin
      {
        OFFSET 0 -36.8199 0.73152
        CHANNELS 3 Zrotation Xrotation Yrotation
        JOINT lFoot
        {
          OFFSET -0.73152 -45.1104 -5.12064
          CHANNELS 3 Zrotation Xrotation Yrotation
          End Site
          {
            OFFSET 1.1221 -3.69964 12.103
          }
        }
      }
    }
  }
}
MOTION
Frames:	5
Frame Time:	0.00833333
4.73581 84.9173 -170.404 0.0 0.0 0.0 -0.140626 -0.00029501 -0.00400527 -0.0387671 -0.000394539 -0.00671566 1.75881e-15 -1.59028e-15 -2.01891e-17 5.25848e-15 3.18055e-15 -5.28022e-17 -0.0 0.0 0.0 -0.0 0.0 0.0 8.43539e-16 3.88251e-19 1.49089e-16 2.10473e-14 7.45443e-17 5.96354e-16 3.15769e-13 -9.34288e-14 6.36111e-15 3.61704e-12 9.50936e-14 -5.08889e-14 8.5298e-12 8.79067e-16 -6.67917e-14 1.4728e-11 -6.36111e-15 -1.38354e-13 8.53542e-12 4.37326e-15 -8.5875e-14 7.73091 5.47488 0.417314 8.53144e-12 1.59028e-15 -7.31528e-14 2.90554 0.965183 0.102902 8.54265e-12 1.78906e-15 -7.79236e-14 10.2786 0.731801 0.0259123 8.53323e-12 -7.95139e-16 -6.99722e-14 2.22167 -0.733487 -0.20892 8.46189e-16 0.0 -1.49089e-16 1.55379e-14 -4.34841e-17 -9.93923e-16 3.16912e-13 9.40251e-14 -1.59028e-14 3.612e-12 -9.90693e-14 -1.27222e-14 8.52422e-12 -1.50077e-14 -7.95139e-14 1.47196e-11 -2.8625e-14 -1.23246e-13 8.51474e-12 -1.35174e-14 -8.26944e-14 -7.73091 5.47488 -0.417314 8.52374e-12 -1.45113e-14 -7.63333e-14 -2.90554 0.965183 -0.102902 8.50471e-12 -1.39149e-14 -7.71284e-14 -10.2786 0.731801 -0.0259123 8.52607e-12 -1.59028e-14 -7.95139e-14 -2.22167 -0.733487 0.20892 -2.03217e-16 0.0 -3.88251e-19 0.415463 -2.89234 -0.0363697 -0.00657587 -0.313963 -0.0578461 -0.521696 3.20536 0.12542 2.03217e-16 0.0 3.88251e-19 -0.629342 -3.43714 0.0497308 0.00497781 0.672917 0.0432298 0.523132 2.76331 -0.116509
4.38847 83.099 -171.185 -5.7956 11.6633 0.1921 -0.716582 1.3352 -0.815858 1.14285 -1.33941 -0.224445 1.79491 -1.90523 -1.053 -1.91905 2.00123 -2.65995 -0.0 0.0 0.0 -0.0 0.0 0.0 1.52332e-14 1.18892e-15 2.17696e-14 20.9928 3.73994 -0.504331 -4.53529 -2.12756 7.00965 0.00977505 -2.19413 -0.30755 -1.93269e-10 3.8219e-10 -1.23992e-10 -3.33467e-10 6.60522e-10 -2.15552e-10 -1.93264e-10 3.82194e-10 -1.24006e-10 7.73091 5.47488 0.417314 -1.93268e-10 3.82192e-10 -1.23997e-10 2.90554 0.965183 0.102902 -1.93257e-10 3.82193e-10 -1.24001e-10 10.2786 0.731801 0.0259123 -1.93267e-10 3.82191e-10 -1.23993e-10 2.22167 -0.733487 -0.20892 1.52246e-14 1.1882e-15 2.14885e-14 -21.1469 5.90291 -0.475578 3.03624 -1.20625 -4.91389 -0.000540566 0.518513 -0.0728617 -2.99517e-10 -1.4245e-10 1.74291e-10 -5.17346e-10 -2.46005e-10 3.02507e-10 -2.99525e-10 -1.42449e-10 1.7429e-10 -7.73091 5.47488 -0.417314 -2.99516e-10 -1.4245e-10 1.74294e-10 -2.90554 0.965183 -0.102902 -2.99533e-10 -1.42449e-10 1.74293e-10 -10.2786 0.731801 -0.0259123 -2.99514e-10 -1.42451e-10 1.74291e-10 -2.22167 -0.733487 0.20892 -2.03217e-16 0.0 -3.88251e-19 -0.0730578 -6.62599 -2.89585 -0.0091376 13.2448 0.121756 -0.805759 1.9083 -3.19255 2.03217e-16 0.0 3.88251e-19 -0.417247 -7.2448 0.624899 0.000738165 9.92413 -0.0785618 0.910669 -1.18212 3.86839
4.35748 83.1016 -171.131 -5.7894 11.3597 0.1966 -1.27656 2.74228 -1.68574 2.39463 -2.75087 -0.457327 3.60831 -3.92753 -2.17229 -3.74789 4.11342 -5.48452 -0.0 0.0 0.0 -0.0 0.0 0.0 3.22037e-14 2.30835e-15 4.19094e-14 43.2432 7.69267 -1.04249 -8.7691 -4.2712 14.452 -0.00559696 -4.52006 -0.635107 -4.16533e-10 7.79402e-10 -2.73507e-10 -7.18623e-10 1.34682e-09 -4.75362e-10 -4.1653e-10 7.79405e-10 -2.73515e-10 7.73091 5.47488 0.417314 -4.16534e-10 7.79405e-10 -2.7351e-10 2.90554 0.965183 0.102902 -4.16522e-10 7.79405e-10 -2.73512e-10 10.2786 0.731801 0.0259123 -4.16532e-10 7.79404e-10 -2.73505e-10 2.22167 -0.733487 -0.20892 3.21861e-14 2.30729e-15 4.16485e-14 -43.4058 12.1385 -0.999028 6.01954 -2.45049 -10.1117 0.0003297 1.07284 -0.150777 -6.2179e-10 -2.80053e-10 3.65263e-10 -1.07392e-09 -4.83584e-10 6.3395e-10 -6.21795e-10 -2.80051e-10 3.65265e-10 -7.73091 5.47488 -0.417314 -6.21787e-10 -2.80052e-10 3.65267e-10 -2.90554 0.965183 -0.102902 -6.21801e-10 -2.80052e-10 3.65267e-10 -10.2786 0.731801 -0.0259123 -6.21784e-10 -2.80053e-10 3.65264e-10 -2.22167 -0.733487 0.20892 -2.03217e-16 0.0 -3.88251e-19 -0.985493 -10.5325 -5.98017 -0.113995 27.5684 0.343899 -1.27097 0.534881 -6.70954 2.03217e-16 0.0 3.88251e-19 -0.102161 -11.2778 1.23007 0.0412594 19.7062 -0.217661 1.91809 -5.30863 8.11622
4.3473 83.1169 -171.031 -5.8197 11.1768 0.0479 -1.75476 4.00295 -2.44487 3.4755 -4.01721 -0.661345 5.17386 -5.70796 -3.17301 -5.19915 5.95182 -8.01847 -0.0 0.0 0.0 -0.0 0.0 0.0 4.40126e-14 3.56599e-15 6.50107e-14 63.1793 11.2163 -1.53918 -12.0759 -6.00138 21.1357 -0.0417362 -6.58164 -0.92809 -5.96865e-10 1.14657e-09 -3.71843e-10 -1.02986e-09 1.98158e-09 -6.46379e-10 -5.96863e-10 1.14657e-09 -3.71846e-10 7.73091 5.47488 0.417314 -5.96868e-10 1.14657e-09 -3.71844e-10 2.90554 0.965183 0.102902 -5.96856e-10 1.14657e-09 -3.71846e-10 10.2786 0.731801 0.0259123 -5.96867e-10 1.14657e-09 -3.71839e-10 2.22167 -0.733487 -0.20892 4.39813e-14 3.5646e-15 6.47638e-14 -63.1343 17.7037 -1.48973 8.49463 -3.51245 -14.7668 0.00233582 1.55553 -0.218657 -9.156e-10 -4.27321e-10 5.23031e-10 -1.58148e-09 -7.37956e-10 9.07767e-10 -9.15603e-10 -4.2732e-10 5.23035e-10 -7.73091 5.47488 -0.417314 -9.15596e-10 -4.27321e-10 5.23034e-10 -2.90554 0.965183 -0.102902 -9.15607e-10 -4.27321e-10 5.23035e-10 -10.2786 0.731801 -0.0259123 -9.15593e-10 -4.2732e-10 5.23031e-10 -2.22167 -0.733487 0.20892 -2.03217e-16 0.0 -3.88251e-19 -2.19376 -13.9581 -8.81922 -0.331722 40.3607 0.618448 -1.82267 -0.667006 -9.82346 2.03217e-16 0.0 3.88251e-19 0.243545 -14.8542 1.82133 0.123087 28.4261 -0.362294 3.33482 -8.88646 11.9813
4.43462 83.1152 -170.985 -5.5161 10.8922 0.0873 -2.11063 4.90083 -2.922 4.15112 -4.92096 -0.791817 6.27144 -6.89125 -3.86355 -6.10595 7.15593 -9.78806 -0.0 0.0 0.0 -0.0 0.0 0.0 4.29175e-14 5.16918e-15 9.5516e-14 77.1881 13.6705 -1.90753 -14.1324 -7.06174 25.8208 -0.0788071 -7.98313 -1.12935 -6.69869e-10 1.43863e-09 -3.42234e-10 -1.15629e-09 2.48751e-09 -5.95415e-10 -6.69868e-10 1.43863e-09 -3.42234e-10 7.73091 5.47488 0.417314 -6.69873e-10 1.43863e-09 -3.42234e-10 2.90554 0.965183 0.102902 -6.69861e-10 1.43863e-09 -3.42235e-10 10.2786 0.731801 0.0259123 -6.69872e-10 1.43864e-09 -3.42228e-10 2.22167 -0.733487 -0.20892 4.28609e-14 5.16743e-15 9.52676e-14 -76.7608 21.5981 -1.83784 10.1278 -4.2193 -18.0412 0.00424088 1.85912 -0.261375 -1.13825e-09 -5.98754e-10 5.97785e-10 -1.96647e-09 -1.03431e-09 1.03752e-09 -1.13826e-09 -5.98753e-10 5.97792e-10 -7.73091 5.47488 -0.417314 -1.13825e-09 -5.98753e-10 5.97788e-10 -2.90554 0.965183 -0.102902 -1.13826e-09 -5.98754e-10 5.97789e-10 -10.2786 0.731801 -0.0259123 -1.13825e-09 -5.98753e-10 5.97785e-10 -2.22167 -0.733487 0.20892 -2.03217e-16 0.0 -3.88251e-19 -3.32707 -16.305 -10.8646 -0.598558 49.3263 0.90186 -2.26928 -1.46707 -11.928 2.03217e-16 0.0 3.88251e-19 0.506449 -17.2939 2.33975 0.211896 34.4913 -0.482573 4.60602 -11.2817 14.7322
